<svg width="80" height="86" viewBox="0 0 80 86" fill="none" xmlns="http://www.w3.org/2000/svg">
<circle cx="40" cy="46" r="40" fill="black"/>
<circle cx="40" cy="40" r="40" fill="#05DB54"/>
<circle cx="41" cy="40" r="32" fill="#FFD700"/>
<path d="M28.0341 57V22.0909H42.0114C44.5795 22.0909 46.7216 22.4716 48.4375 23.233C50.1534 23.9943 51.4432 25.0511 52.3068 26.4034C53.1705 27.7443 53.6023 29.2898 53.6023 31.0398C53.6023 32.4034 53.3295 33.6023 52.7841 34.6364C52.2386 35.6591 51.4886 36.5 50.5341 37.1591C49.5909 37.8068 48.5114 38.267 47.2955 38.5398V38.8807C48.625 38.9375 49.8693 39.3125 51.0284 40.0057C52.1989 40.6989 53.1477 41.6705 53.875 42.9205C54.6023 44.1591 54.9659 45.6364 54.9659 47.3523C54.9659 49.2045 54.5057 50.858 53.5852 52.3125C52.6761 53.7557 51.3295 54.8977 49.5455 55.7386C47.7614 56.5795 45.5625 57 42.9489 57H28.0341ZM35.4148 50.9659H41.4318C43.4886 50.9659 44.9886 50.5739 45.9318 49.7898C46.875 48.9943 47.3466 47.9375 47.3466 46.6193C47.3466 45.6534 47.1136 44.8011 46.6477 44.0625C46.1818 43.3239 45.517 42.7443 44.6534 42.3239C43.8011 41.9034 42.7841 41.6932 41.6023 41.6932H35.4148V50.9659ZM35.4148 36.6989H40.8864C41.8977 36.6989 42.7955 36.5227 43.5795 36.1705C44.375 35.8068 45 35.2955 45.4545 34.6364C45.9205 33.9773 46.1534 33.1875 46.1534 32.267C46.1534 31.0057 45.7045 29.9886 44.8068 29.2159C43.9205 28.4432 42.6591 28.0568 41.0227 28.0568H35.4148V36.6989Z" fill="#05DB54"/>
</svg>
