<svg width="55" height="57" viewBox="0 0 55 57" fill="none" xmlns="http://www.w3.org/2000/svg">
<path d="M39.6134 6.30721L30.7447 3.4256C28.6358 2.7404 26.3642 2.7404 24.2553 3.4256L15.3866 6.30721C13.2778 6.99242 11.44 8.32766 10.1366 10.1216L4.65549 17.6657C3.35215 19.4596 2.65017 21.6201 2.65017 23.8375V33.1625C2.65017 35.3799 3.35215 37.5404 4.65549 39.3343L10.1366 46.8784C11.44 48.6723 13.2778 50.0076 15.3866 50.6928L24.2553 53.5744C26.3642 54.2596 28.6358 54.2596 30.7447 53.5744L39.6134 50.6928C41.7222 50.0076 43.56 48.6723 44.8634 46.8784L50.3445 39.3343C51.6479 37.5404 52.3498 35.3799 52.3498 33.1625V23.8375C52.3498 21.6201 51.6479 19.4596 50.3445 17.6657L44.8634 10.1216C43.56 8.32766 41.7222 6.99242 39.6134 6.30721Z" fill="url(#paint0_linear_139_288)" stroke="url(#paint1_linear_139_288)" stroke-width="5"/>
<path fill-rule="evenodd" clip-rule="evenodd" d="M29.9721 5.80329C28.3654 5.28123 26.6346 5.28123 25.0278 5.80329L16.1592 8.6849C14.5524 9.20696 13.1522 10.2243 12.1592 11.5911L6.67802 19.1352C5.685 20.502 5.15016 22.1481 5.15016 23.8375V33.1626C5.15016 34.7867 5.64446 36.3708 6.56496 37.7052C6.29191 36.8906 6.15016 36.0323 6.15016 35.1626V25.8375C6.15016 24.1481 6.685 22.502 7.67802 21.1352L13.1592 13.5911C14.1522 12.2243 15.5524 11.207 17.1592 10.6849L26.0278 7.80329C27.6346 7.28123 29.3654 7.28123 30.9721 7.80329L39.8408 10.6849C41.4476 11.207 42.8478 12.2243 43.8408 13.5911L49.322 21.1352C49.3603 21.188 49.398 21.2413 49.435 21.2949C49.1777 20.5272 48.8037 19.7984 48.322 19.1352L42.8408 11.5911C41.8478 10.2243 40.4476 9.20696 38.8408 8.6849L29.9721 5.80329Z" fill="white"/>
<path fill-rule="evenodd" clip-rule="evenodd" d="M9.24369 41.3962L12.1592 45.409C13.1522 46.7758 14.5524 47.7931 16.1592 48.3152L25.0279 51.1968C26.6346 51.7189 28.3654 51.7189 29.9721 51.1968L38.8408 48.3152C40.4476 47.7931 41.8478 46.7758 42.8408 45.409L48.322 37.8649C49.315 36.4981 49.8498 34.852 49.8498 33.1626V23.8375C49.8498 22.1481 49.315 20.502 48.322 19.1352L42.8408 11.5911C42.2685 10.8033 41.5608 10.1316 40.7563 9.60391L43.322 13.1352C44.315 14.502 44.8498 16.1481 44.8498 17.8375V27.1626C44.8498 28.852 44.315 30.4981 43.322 31.8649L37.8408 39.409C36.8478 40.7758 35.4476 41.7931 33.8408 42.3152L24.9721 45.1968C23.3654 45.7189 21.6346 45.7189 20.0279 45.1968L11.1592 42.3152C10.4785 42.094 9.83496 41.784 9.24369 41.3962Z" fill="url(#paint2_linear_139_288)"/>
<path d="M25.6877 16.8833C26.4059 15.3444 28.5941 15.3444 29.3123 16.8833L32.1245 22.909C32.3232 23.3346 32.6654 23.6768 33.091 23.8755L39.1167 26.6877C40.6556 27.4059 40.6556 29.5941 39.1167 30.3123L33.091 33.1245C32.6654 33.3232 32.3232 33.6654 32.1245 34.091L29.3123 40.1167C28.5941 41.6556 26.4059 41.6556 25.6877 40.1167L22.8755 34.091C22.6768 33.6654 22.3346 33.3232 21.909 33.1245L15.8833 30.3123C14.3444 29.5941 14.3444 27.4059 15.8833 26.6877L21.909 23.8755C22.3346 23.6768 22.6768 23.3346 22.8755 22.909L25.6877 16.8833Z" fill="white"/>
<defs>
<linearGradient id="paint0_linear_139_288" x1="7.5" y1="21.5" x2="59.5" y2="52" gradientUnits="userSpaceOnUse">
<stop stop-color="#B9F2FF"/>
<stop offset="1" stop-color="#219AB6"/>
</linearGradient>
<linearGradient id="paint1_linear_139_288" x1="57.5" y1="52" x2="-0.5" y2="-1.5" gradientUnits="userSpaceOnUse">
<stop stop-color="#FF69B4"/>
<stop offset="1" stop-color="#0ED2FF"/>
</linearGradient>
<linearGradient id="paint2_linear_139_288" x1="6" y1="15.5" x2="57.5" y2="67.5" gradientUnits="userSpaceOnUse">
<stop offset="0.193672" stop-color="#61D0FF"/>
<stop offset="1" stop-color="#FF69B4"/>
</linearGradient>
</defs>
</svg>
