<svg width="57" height="57" viewBox="0 0 57 57" fill="none" xmlns="http://www.w3.org/2000/svg">
<path d="M43.0123 8.30519L32.5182 3.9584C29.9454 2.89272 27.0546 2.89271 24.4818 3.9584L13.9877 8.30519C11.415 9.37088 9.37088 11.415 8.30519 13.9877L3.9584 24.4818C2.89272 27.0546 2.89271 29.9454 3.9584 32.5182L8.30519 43.0123C9.37088 45.585 11.415 47.6291 13.9877 48.6948L24.4818 53.0416C27.0546 54.1073 29.9454 54.1073 32.5182 53.0416L43.0122 48.6948C45.585 47.6291 47.6291 45.585 48.6948 43.0123L53.0416 32.5182C54.1073 29.9454 54.1073 27.0546 53.0416 24.4818L48.6948 13.9878C47.6291 11.415 45.585 9.37088 43.0123 8.30519Z" fill="#50C878" stroke="#47B06A" stroke-width="5"/>
<path fill-rule="evenodd" clip-rule="evenodd" d="M31.5614 6.26814C29.6012 5.45619 27.3987 5.45619 25.4385 6.26814L14.9444 10.6149C12.9842 11.4269 11.4268 12.9843 10.6149 14.9445L6.26808 25.4386C5.45613 27.3988 5.45613 29.6013 6.26808 31.5615L10.6149 42.0556C10.8201 42.551 11.0729 43.0207 11.3678 43.4591L7.26808 33.5615C6.45613 31.6013 6.45613 29.3988 7.26808 27.4386L11.6149 16.9445C12.4268 14.9843 13.9842 13.4269 15.9444 12.6149L26.4385 8.26814C28.3987 7.45619 30.6012 7.45619 32.5614 8.26814L43.0555 12.6149C44.5203 13.2217 45.7602 14.2447 46.6322 15.541L46.3851 14.9445C45.5731 12.9843 44.0158 11.4269 42.0555 10.6149L31.5614 6.26814Z" fill="white"/>
<path fill-rule="evenodd" clip-rule="evenodd" d="M9.91849 40.3743L10.6149 42.0556C11.4268 44.0158 12.9842 45.5732 14.9444 46.3852L25.4385 50.7319C27.3987 51.5439 29.6012 51.5439 31.5615 50.7319L42.0555 46.3852C44.0158 45.5732 45.5732 44.0158 46.3851 42.0556L50.7319 31.5615C51.5438 29.6013 51.5438 27.3988 50.7319 25.4386L46.3851 14.9445C45.5767 12.9929 44.0295 11.4406 42.0815 10.6257L45.7319 19.4386C46.5438 21.3988 46.5438 23.6013 45.7319 25.5615L41.3851 36.0556C40.5732 38.0158 39.0158 39.5732 37.0555 40.3852L26.5615 44.7319C24.6012 45.5439 22.3987 45.5439 20.4385 44.7319L9.94445 40.3852C9.93579 40.3816 9.92713 40.378 9.91849 40.3743Z" fill="#388953"/>
<path d="M26.6534 17.4399C27.3365 15.7973 29.6635 15.7973 30.3466 17.4399L32.1307 21.7292C32.4187 22.4217 33.0699 22.8948 33.8175 22.9547L38.4482 23.326C40.2215 23.4681 40.9405 25.6811 39.5895 26.8385L36.0614 29.8607C35.4918 30.3486 35.243 31.1141 35.4171 31.8436L36.495 36.3624C36.9077 38.0929 35.0252 39.4606 33.507 38.5333L29.5425 36.1118C28.9025 35.7208 28.0975 35.7208 27.4575 36.1118L23.493 38.5333C21.9748 39.4606 20.0923 38.0929 20.505 36.3624L21.5829 31.8436C21.757 31.1141 21.5082 30.3486 20.9386 29.8607L17.4105 26.8385C16.0595 25.6811 16.7785 23.4681 18.5518 23.326L23.1825 22.9547C23.9301 22.8948 24.5813 22.4217 24.8693 21.7292L26.6534 17.4399Z" fill="white"/>
</svg>
