<svg width="51" height="55" viewBox="0 0 51 55" fill="none" xmlns="http://www.w3.org/2000/svg">
<path d="M43.1016 11.2755L30.75 4.14434C27.5013 2.26869 23.4987 2.26869 20.25 4.14434L7.8984 11.2755C4.64969 13.1512 2.6484 16.6175 2.6484 20.3688V34.6312C2.6484 38.3825 4.64969 41.8488 7.8984 43.7245L20.25 50.8557C23.4987 52.7313 27.5013 52.7313 30.75 50.8557L43.1016 43.7245C46.3503 41.8488 48.3516 38.3825 48.3516 34.6312V20.3688C48.3516 16.6175 46.3503 13.1512 43.1016 11.2755Z" fill="#FFD700" stroke="#E1BE03" stroke-width="5"/>
<path fill-rule="evenodd" clip-rule="evenodd" d="M29.5 6.30935C27.0248 4.88028 23.9752 4.88028 21.5 6.30935L9.14839 13.4405C6.67318 14.8696 5.14839 17.5106 5.14839 20.3687V34.6311C5.14839 36.2815 5.65677 37.8594 6.56295 39.1734C6.29212 38.3657 6.14839 37.5086 6.14839 36.6311V22.3687C6.14839 19.5106 7.67318 16.8696 10.1484 15.4405L22.5 8.30935C24.9752 6.88028 28.0248 6.88028 30.5 8.30935L42.8516 15.4405C43.8976 16.0444 44.7738 16.8648 45.437 17.8265C44.8257 16.0032 43.5669 14.4309 41.8516 13.4405L29.5 6.30935Z" fill="white"/>
<path fill-rule="evenodd" clip-rule="evenodd" d="M5.30956 36.2299C5.76205 38.4491 7.14342 40.4019 9.1484 41.5595L21.5 48.6907C23.9752 50.1197 27.0248 50.1197 29.5 48.6907L41.8516 41.5595C44.3268 40.1304 45.8516 37.4894 45.8516 34.6313V20.3689C45.8516 17.5107 44.3268 14.8697 41.8516 13.4407L40.6904 12.7703C40.7966 13.2907 40.8516 13.8259 40.8516 14.3689V28.6313C40.8516 31.4894 39.3268 34.1304 36.8516 35.5595L24.5 42.6907C22.0248 44.1197 18.9752 44.1197 16.5 42.6907L5.30956 36.2299Z" fill="#AA8F00"/>
<path d="M31 27.5C31 30.5376 28.5376 33 25.5 33C22.4624 33 20 30.5376 20 27.5C20 24.4624 22.4624 22 25.5 22C28.5376 22 31 24.4624 31 27.5Z" fill="#705E02"/>
<path fill-rule="evenodd" clip-rule="evenodd" d="M24.5 32.0001C27.5376 32.0001 30 29.5376 30 26.5001C30 25.2362 29.5737 24.0719 28.857 23.1431C30.1604 24.1488 31 25.7264 31 27.5001C31 30.5376 28.5376 33.0001 25.5 33.0001C23.7263 33.0001 22.1488 32.1605 21.143 30.8571C22.0718 31.5738 23.2361 32.0001 24.5 32.0001Z" fill="#AA8F00"/>
</svg>
